# xmcd CD database file
#
# Track frame offsets:
#	150
#	16767
#	34780
#	49087
#	62327
#	84082
#	99795
#	112555
#	126317
#	144240
#	154237
#	178682
#	195152
#
# Disc length: 2893 seconds
#
# Revision: 1
# Processed by: cddbd v1.4PL0 Copyright (c) Steve Scherf et al.
# Submitted via: CDex 1.50beta10
#
DISCID=8b0b4b0d
DTITLE=Steve "Big Man" Clayton - I got a right
DYEAR=1900
DGENRE=Blues
TTITLE0=I got a right
TTITLE1=I got a thing about you, baby
TTITLE2=Willyawannaboogie
TTITLE3=Big Man Boogie
TTITLE4=It was you
TTITLE5=Midnight baby
TTITLE6=Chicago Boogie
TTITLE7=Strange life I'm living
TTITLE8=Can you dig it
TTITLE9=My Valentine Girl
TTITLE10=Liberated woman
TTITLE11=Blood is red
TTITLE12=3 Days Blues
EXTD=
EXTT0=
EXTT1=
EXTT2=
EXTT3=
EXTT4=
EXTT5=
EXTT6=
EXTT7=
EXTT8=
EXTT9=
EXTT10=
EXTT11=
EXTT12=
PLAYORDER=
